<svg 
 xmlns="http://www.w3.org/2000/svg"
 xmlns:xlink="http://www.w3.org/1999/xlink"
 width="NaN%" height="NaN%">
<defs>
<filter id="Filter_0">
    <feFlood flood-color="rgb(199, 178, 153)" flood-opacity="1" result="floodOut" />
    <feComposite operator="atop" in="floodOut" in2="SourceGraphic" result="compOut" />
    <feBlend mode="normal" in="compOut" in2="SourceGraphic" />
</filter>

</defs>
<g filter="url(#Filter_0)">
<path fill-rule="evenodd"  fill="rgb(0, 0, 0)"
 d="M10.500,0.000 C4.702,0.000 0.001,4.701 0.001,10.499 C0.001,16.298 4.702,20.998 10.500,20.998 C16.299,20.998 20.998,16.298 20.998,10.499 C20.998,4.701 16.299,0.000 10.500,0.000 ZM13.789,10.996 L9.250,15.535 C8.977,15.809 8.533,15.809 8.260,15.535 C7.987,15.261 7.987,14.819 8.260,14.545 L12.307,10.499 L8.260,6.452 C7.987,6.179 7.987,5.736 8.260,5.462 C8.533,5.190 8.977,5.190 9.250,5.462 L13.789,10.002 C13.927,10.140 13.995,10.320 13.994,10.499 C13.994,10.679 13.927,10.859 13.789,10.996 Z"/>
</g>
</svg>