<svg 
 xmlns="http://www.w3.org/2000/svg"
 xmlns:xlink="http://www.w3.org/1999/xlink"
 width="400" height="">

<path 
 d="M19.937,30.250 C25.625,30.250 30.250,24.621 30.250,17.703 C30.250,10.784 25.625,5.156 19.937,5.156 C17.124,5.156 14.498,6.502 12.543,8.944 C10.660,11.298 9.624,14.408 9.625,17.703 C9.625,24.622 14.250,30.250 19.937,30.250 ZM19.937,7.906 C24.107,7.906 27.500,12.300 27.500,17.703 C27.500,23.106 24.107,27.500 19.937,27.500 C15.768,27.500 12.375,23.106 12.372,17.703 C12.372,12.300 15.765,7.906 19.937,7.906 ZM28.598,28.875 C27.838,28.875 27.223,29.490 27.223,30.250 C27.223,31.010 27.838,31.625 28.598,31.625 C33.299,31.625 37.125,35.450 37.125,40.153 C37.125,40.755 36.631,41.250 36.024,41.250 L3.848,41.250 C3.243,41.250 2.750,40.758 2.750,40.153 C2.750,35.450 6.574,31.625 11.274,31.625 C12.034,31.625 12.649,31.010 12.649,30.250 C12.649,29.490 12.034,28.875 11.274,28.875 C5.057,28.875 -0.000,33.934 -0.000,40.153 C-0.000,42.274 1.727,44.000 3.848,44.000 L36.024,44.000 C38.147,44.000 39.875,42.274 39.875,40.153 C39.875,33.934 34.815,28.875 28.598,28.875 ZM20.943,3.629 C21.927,3.045 22.976,2.751 24.062,2.751 C28.232,2.751 31.625,7.146 31.625,12.547 C31.625,13.516 31.518,14.466 31.305,15.375 C31.131,16.114 31.590,16.854 32.329,17.027 C32.435,17.054 32.539,17.064 32.644,17.064 C33.268,17.064 33.833,16.636 33.982,16.004 C34.241,14.889 34.375,13.726 34.375,12.547 C34.375,5.629 29.750,-0.000 24.062,-0.000 C22.499,-0.000 20.938,0.435 19.544,1.261 C18.889,1.647 18.674,2.491 19.060,3.144 C19.447,3.798 20.292,4.015 20.943,3.629 ZM33.000,23.375 C32.240,23.375 31.625,23.990 31.625,24.750 C31.625,25.510 32.240,26.125 33.000,26.125 C37.701,26.125 41.250,30.043 41.250,34.743 C41.250,34.899 41.220,35.053 41.156,35.191 C40.848,35.887 41.161,36.698 41.854,37.006 C42.034,37.087 42.225,37.125 42.413,37.125 C42.939,37.125 43.441,36.819 43.670,36.308 C43.888,35.814 44.000,35.288 44.000,34.740 C44.000,28.527 39.217,23.375 33.000,23.375 Z"/>

</svg>