<svg 
 xmlns="http://www.w3.org/2000/svg"
 xmlns:xlink="http://www.w3.org/1999/xlink"
 width="30" height="30">
<defs>
<filter id="Filter_0">
    <feFlood flood-color="rgb(199, 178, 153)" flood-opacity="1" result="floodOut" />
    <feComposite operator="atop" in="floodOut" in2="SourceGraphic" result="compOut" />
    <feBlend mode="normal" in="compOut" in2="SourceGraphic" />
</filter>

</defs>
<g filter="url(#Filter_0)">
<path fill-rule="evenodd"  fill="rgb(0, 0, 0)"
 d="M23.499,11.242 L21.573,13.170 L18.386,16.359 C18.233,16.529 18.045,16.683 17.875,16.819 C16.102,18.217 13.750,18.524 11.722,17.724 C10.972,17.433 10.256,16.973 9.643,16.359 L12.284,13.715 C13.239,14.670 14.790,14.670 15.744,13.715 L17.772,11.686 L20.857,8.599 C21.812,7.644 21.812,6.091 20.857,5.137 C19.903,4.182 18.352,4.182 17.397,5.137 L14.943,7.593 C13.409,6.877 11.654,6.757 10.035,7.217 L14.756,2.494 C17.159,0.089 21.096,0.089 23.499,2.494 C25.919,4.915 25.919,8.837 23.499,11.242 ZM14.262,8.293 C15.011,8.582 15.727,9.042 16.341,9.656 L13.699,12.301 C12.745,11.345 11.194,11.345 10.239,12.301 L5.126,17.416 C4.171,18.372 4.171,19.922 5.126,20.878 C6.080,21.834 7.631,21.834 8.586,20.878 L10.938,18.524 C12.949,19.327 13.495,19.394 15.846,18.849 L11.228,23.521 C8.825,25.927 4.887,25.927 2.484,23.521 C0.081,21.117 0.081,17.178 2.484,14.774 L7.597,9.656 C7.665,9.589 7.751,9.503 7.836,9.435 C9.625,7.831 12.131,7.439 14.262,8.293 Z"/>
</g>
</svg>