<svg 
 xmlns="http://www.w3.org/2000/svg"
 xmlns:xlink="http://www.w3.org/1999/xlink"
 width="30" height="30">
<defs>
<filter id="Filter_0">
    <feFlood flood-color="rgb(255, 255, 255)" flood-opacity="1" result="floodOut" />
    <feComposite operator="atop" in="floodOut" in2="SourceGraphic" result="compOut" />
    <feBlend mode="normal" in="compOut" in2="SourceGraphic" />
</filter>

</defs>
<g filter="url(#Filter_0)">
<path fill-rule="evenodd"  fill="rgb(0, 0, 0)"
 d="M25.456,24.172 C25.135,24.489 24.714,24.646 24.293,24.646 C23.873,24.646 23.451,24.489 23.130,24.172 L18.795,19.901 C16.902,21.348 14.535,22.218 11.959,22.218 C5.793,22.218 0.777,17.276 0.777,11.202 C0.777,5.128 5.793,0.186 11.959,0.186 C18.125,0.186 23.141,5.128 23.141,11.202 C23.141,13.572 22.370,15.764 21.073,17.563 L25.456,21.881 C26.098,22.514 26.098,23.540 25.456,24.172 ZM11.960,2.778 C7.245,2.778 3.409,6.557 3.409,11.202 C3.409,15.847 7.245,19.626 11.960,19.627 C14.064,19.627 15.990,18.871 17.481,17.624 C17.941,17.240 18.355,16.805 18.724,16.336 C19.840,14.913 20.510,13.135 20.510,11.202 C20.510,6.557 16.674,2.778 11.960,2.778 ZM16.810,9.581 C16.625,9.668 16.429,9.711 16.234,9.711 C15.747,9.711 15.280,9.444 15.052,8.983 C14.347,7.559 12.911,6.674 11.304,6.674 C10.578,6.674 9.989,6.094 9.989,5.377 C9.989,4.663 10.578,4.082 11.304,4.082 C13.925,4.082 16.268,5.525 17.417,7.847 C17.735,8.491 17.464,9.267 16.810,9.581 Z"/>
</g>
</svg>